<?xml version="1.0" encoding="UTF-8" standalone="no"?>
<!-- Created with Inkscape (http://www.inkscape.org/) -->

<svg
   xmlns:dc="http://purl.org/dc/elements/1.1/"
   xmlns:cc="http://creativecommons.org/ns#"
   xmlns:rdf="http://www.w3.org/1999/02/22-rdf-syntax-ns#"
   xmlns:svg="http://www.w3.org/2000/svg"
   xmlns="http://www.w3.org/2000/svg"
   xmlns:xlink="http://www.w3.org/1999/xlink"
   xmlns:sodipodi="http://sodipodi.sourceforge.net/DTD/sodipodi-0.dtd"
   xmlns:inkscape="http://www.inkscape.org/namespaces/inkscape"
   sodipodi:docname="doll2.svg"
   inkscape:version="0.48.3.1 r9886"
   sodipodi:version="0.32"
   id="svg2"
   height="500"
   width="353.97491"
   inkscape:output_extension="org.inkscape.output.svg.inkscape"
   version="1.0"
   inkscape:export-filename="/users/staff/theo/zep/experiments/staff/liquan-liu/0.20/switchp/doll2.svg.png"
   inkscape:export-xdpi="58.07"
   inkscape:export-ydpi="58.07">
  <defs
     id="defs3">
    <inkscape:perspective
       sodipodi:type="inkscape:persp3d"
       inkscape:vp_x="0 : 526.18109 : 1"
       inkscape:vp_y="0 : 1000 : 0"
       inkscape:vp_z="744.09448 : 526.18109 : 1"
       inkscape:persp3d-origin="372.04724 : 350.78739 : 1"
       id="perspective43" />
    <linearGradient
       id="linearGradient15768"
       inkscape:collect="always">
      <stop
         id="stop15770"
         offset="0"
         style="stop-color:#fbb300;stop-opacity:1;" />
      <stop
         id="stop15772"
         offset="1"
         style="stop-color:#fbb300;stop-opacity:0;" />
    </linearGradient>
    <radialGradient
       inkscape:collect="always"
       xlink:href="#linearGradient15768"
       id="radialGradient3052"
       gradientUnits="userSpaceOnUse"
       gradientTransform="scale(0.973334,1.027396)"
       cx="-100.52837"
       cy="207.96988"
       fx="-100.52837"
       fy="207.96988"
       r="36.937119" />
    <radialGradient
       inkscape:collect="always"
       xlink:href="#linearGradient15768"
       id="radialGradient3054"
       gradientUnits="userSpaceOnUse"
       gradientTransform="scale(0.973334,1.027396)"
       cx="-100.52837"
       cy="207.96988"
       fx="-100.52837"
       fy="207.96988"
       r="36.937119" />
  </defs>
  <sodipodi:namedview
     inkscape:window-y="25"
     inkscape:window-x="0"
     inkscape:window-height="915"
     inkscape:window-width="1219"
     inkscape:current-layer="layer1"
     inkscape:document-units="px"
     inkscape:cy="387.24832"
     inkscape:cx="274.15237"
     inkscape:zoom="0.88831889"
     inkscape:pageshadow="2"
     inkscape:pageopacity="0.0"
     borderopacity="1.0"
     bordercolor="#666666"
     pagecolor="#ffffff"
     id="base"
     showgrid="false"
     inkscape:window-maximized="0"
     fit-margin-top="0"
     fit-margin-left="0"
     fit-margin-right="0"
     fit-margin-bottom="0" />
  <metadata
     id="metadata4">
    <rdf:RDF>
      <cc:Work
         rdf:about="">
        <dc:format>image/svg+xml</dc:format>
        <dc:type
           rdf:resource="http://purl.org/dc/dcmitype/StillImage" />
        <dc:title></dc:title>
      </cc:Work>
    </rdf:RDF>
  </metadata>
  <g
     id="layer1"
     inkscape:groupmode="layer"
     inkscape:label="Layer 1"
     transform="translate(-78.572743,-364.0326)"
     style="display:inline">
    <g
       id="g3019"
       transform="matrix(0.64558061,0,0,0.64558061,27.847704,306.22992)">
      <path
         sodipodi:nodetypes="cccccc"
         id="path3579"
         d="m 307.58739,385.75299 c 0,0 3.99378,70.92068 -27.95649,141.84136 -31.95028,70.92068 -88.45446,130.20062 -84.46068,130.20062 -3.99378,0 70.35351,13.89475 209.17368,20.3421 183.71408,-9.671 166.24206,-36.46044 166.24206,-36.46044 C 552.17053,611.94782 427.40092,482.46302 423.40714,376.082"
         style="fill:#ffff00;fill-opacity:1;fill-rule:evenodd;stroke:#000000;stroke-width:3.5937078;stroke-linecap:butt;stroke-linejoin:miter;stroke-miterlimit:4;stroke-opacity:1"
         inkscape:export-xdpi="90.000000"
         inkscape:export-ydpi="90.000000"
         inkscape:connector-curvature="0" />
      <path
         sodipodi:nodetypes="cccccc"
         id="path2064"
         d="m 303.52761,370.19098 c 0,0 19.04382,54.47783 -13.89152,139.02863 -66.39866,98.04045 -73.89696,118.65486 -69.90318,118.65486 -3.99378,0 45.79082,14.7988 184.61099,21.05452 183.71408,-9.38357 141.67937,-36.69381 141.67937,-36.69381 C 464.33298,512.50871 443.64004,467.10884 419.34736,360.61262"
         style="fill:#f72e00;fill-opacity:1;fill-rule:evenodd;stroke:#000000;stroke-width:3.53990126;stroke-linecap:butt;stroke-linejoin:miter;stroke-miterlimit:4;stroke-opacity:1"
         inkscape:export-filename="/home/comum/newton/Inkscape/path3579.png"
         inkscape:export-xdpi="90.000000"
         inkscape:export-ydpi="90.000000"
         inkscape:connector-curvature="0" />
      <path
         id="path2819"
         d="m 330.03017,326.54975 c 0,0 -59.72169,56.67148 -20.69533,49.9348 39.02636,-6.73669 37.25244,-6.73669 56.76562,10.10502 19.51317,16.8417 12.41748,-32.84133 37.25243,-20.21005 24.83496,12.63129 18.913,-46.75411 5.80558,-51.90501"
         style="fill:#ffff00;fill-opacity:1;fill-rule:evenodd;stroke:#000000;stroke-width:3.80374455;stroke-linecap:butt;stroke-linejoin:miter;stroke-miterlimit:4;stroke-opacity:1"
         sodipodi:nodetypes="ccccc"
         inkscape:export-filename="/home/comum/newton/Inkscape/path3579.png"
         inkscape:export-xdpi="90.000000"
         inkscape:export-ydpi="90.000000"
         inkscape:connector-curvature="0" />
      <path
         sodipodi:nodetypes="cc"
         id="path2059"
         d="m 327.14764,325.66918 c -3.61329,5.64155 38.66347,62.48574 66.31612,-0.82306"
         style="fill:#ffc886;fill-opacity:1;fill-rule:evenodd;stroke:#000000;stroke-width:3.74753165;stroke-linecap:butt;stroke-linejoin:miter;stroke-miterlimit:4;stroke-opacity:1"
         inkscape:export-filename="/home/comum/newton/Inkscape/path3579.png"
         inkscape:export-xdpi="90.000000"
         inkscape:export-ydpi="90.000000"
         inkscape:connector-curvature="0" />
      <g
         id="g10424"
         transform="matrix(1,0,0,0.87775,279.5649,142.4263)"
         style="fill:#00ff00;fill-opacity:1"
         inkscape:export-filename="/home/comum/newton/Inkscape/path3579.png"
         inkscape:export-xdpi="90.000000"
         inkscape:export-ydpi="90.000000">
        <path
           sodipodi:type="arc"
           style="stroke:#000000;stroke-width:4;stroke-miterlimit:4;stroke-opacity:1"
           id="path8898"
           sodipodi:cx="97.847717"
           sodipodi:cy="419.34735"
           sodipodi:rx="17.972029"
           sodipodi:ry="17.972029"
           d="m 115.81975,419.34735 c 0,9.92568 -8.04636,17.97203 -17.972033,17.97203 -9.925677,0 -17.972028,-8.04635 -17.972028,-17.97203 0,-9.92568 8.046351,-17.97203 17.972028,-17.97203 9.925673,0 17.972033,8.04635 17.972033,17.97203 z"
           transform="translate(0,-23.96271)" />
        <path
           sodipodi:type="arc"
           style="stroke:#000000;stroke-width:4;stroke-miterlimit:4;stroke-opacity:1"
           id="path8900"
           sodipodi:cx="97.847717"
           sodipodi:cy="419.34735"
           sodipodi:rx="17.972029"
           sodipodi:ry="17.972029"
           d="m 115.81975,419.34735 c 0,9.92568 -8.04636,17.97203 -17.972033,17.97203 -9.925677,0 -17.972028,-8.04635 -17.972028,-17.97203 0,-9.92568 8.046351,-17.97203 17.972028,-17.97203 9.925673,0 17.972033,8.04635 17.972033,17.97203 z"
           transform="translate(27.95649,-7.987573)" />
        <path
           sodipodi:type="arc"
           style="stroke:#000000;stroke-width:4;stroke-miterlimit:4;stroke-opacity:1"
           id="path8902"
           sodipodi:cx="97.847717"
           sodipodi:cy="419.34735"
           sodipodi:rx="17.972029"
           sodipodi:ry="17.972029"
           d="m 115.81975,419.34735 c 0,9.92568 -8.04636,17.97203 -17.972033,17.97203 -9.925677,0 -17.972028,-8.04635 -17.972028,-17.97203 0,-9.92568 8.046351,-17.97203 17.972028,-17.97203 9.925673,0 17.972033,8.04635 17.972033,17.97203 z"
           transform="translate(23.96271,19.96892)" />
        <path
           sodipodi:type="arc"
           style="stroke:#000000;stroke-width:4;stroke-miterlimit:4;stroke-opacity:1"
           id="path8904"
           sodipodi:cx="97.847717"
           sodipodi:cy="419.34735"
           sodipodi:rx="17.972029"
           sodipodi:ry="17.972029"
           d="m 115.81975,419.34735 c 0,9.92568 -8.04636,17.97203 -17.972033,17.97203 -9.925677,0 -17.972028,-8.04635 -17.972028,-17.97203 0,-9.92568 8.046351,-17.97203 17.972028,-17.97203 9.925673,0 17.972033,8.04635 17.972033,17.97203 z"
           transform="translate(-7.987565,31.95027)" />
        <path
           sodipodi:type="arc"
           style="stroke:#000000;stroke-width:4;stroke-miterlimit:4;stroke-opacity:1"
           id="path8906"
           sodipodi:cx="97.847717"
           sodipodi:cy="419.34735"
           sodipodi:rx="17.972029"
           sodipodi:ry="17.972029"
           d="m 115.81975,419.34735 c 0,9.92568 -8.04636,17.97203 -17.972033,17.97203 -9.925677,0 -17.972028,-8.04635 -17.972028,-17.97203 0,-9.92568 8.046351,-17.97203 17.972028,-17.97203 9.925673,0 17.972033,8.04635 17.972033,17.97203 z"
           transform="translate(-27.95649,-4.99407e-6)" />
        <path
           sodipodi:type="arc"
           style="stroke:#000000;stroke-width:4;stroke-miterlimit:4;stroke-opacity:1"
           id="path8896"
           sodipodi:cx="97.847717"
           sodipodi:cy="419.34735"
           sodipodi:rx="17.972029"
           sodipodi:ry="17.972029"
           d="m 115.81975,419.34735 c 0,9.92568 -8.04636,17.97203 -17.972033,17.97203 -9.925677,0 -17.972028,-8.04635 -17.972028,-17.97203 0,-9.92568 8.046351,-17.97203 17.972028,-17.97203 9.925673,0 17.972033,8.04635 17.972033,17.97203 z" />
      </g>
      <path
         style="fill:none;stroke:#000000;stroke-width:3.74753165;stroke-linecap:butt;stroke-linejoin:miter;stroke-miterlimit:4;stroke-opacity:1"
         d="m 108.34548,398.14712 c 100.51288,38.05664 191.37158,-23.23389 191.37158,-23.23389"
         id="path10432"
         inkscape:export-filename="/home/comum/newton/Inkscape/path3579.png"
         inkscape:export-xdpi="90.000000"
         inkscape:export-ydpi="90.000000"
         inkscape:connector-curvature="0" />
      <path
         style="fill:none;stroke:#000000;stroke-width:3.74753165;stroke-linecap:butt;stroke-linejoin:miter;stroke-miterlimit:4;stroke-opacity:1"
         d="M 423.69088,366.32946 C 524.20377,404.38609 475.28,514.86716 475.28,514.86716"
         id="path11192"
         sodipodi:nodetypes="cc"
         inkscape:export-filename="/home/comum/newton/Inkscape/path3579.png"
         inkscape:export-xdpi="90.000000"
         inkscape:export-ydpi="90.000000"
         inkscape:connector-curvature="0" />
      <path
         style="fill:none;stroke:#000000;stroke-width:3.74753165;stroke-linecap:butt;stroke-linejoin:miter;stroke-miterlimit:4;stroke-opacity:1"
         d="m 307.64594,856.35636 c 3.9938,-92.89688 15.97514,-182.28821 15.97514,-182.28821"
         id="path11194"
         sodipodi:nodetypes="cc"
         inkscape:export-filename="/home/comum/newton/Inkscape/path3579.png"
         inkscape:export-xdpi="90.000000"
         inkscape:export-ydpi="90.000000"
         inkscape:connector-curvature="0" />
      <path
         style="fill:none;stroke:#000000;stroke-width:3.74753165;stroke-linecap:butt;stroke-linejoin:miter;stroke-miterlimit:4;stroke-opacity:1"
         d="m 371.49676,845.83972 c 3.9938,-78.8747 23.96271,-168.26603 23.96271,-168.26603"
         id="path11196"
         sodipodi:nodetypes="cc"
         inkscape:export-filename="/home/comum/newton/Inkscape/path3579.png"
         inkscape:export-xdpi="90.000000"
         inkscape:export-ydpi="90.000000"
         inkscape:connector-curvature="0" />
      <path
         style="fill:none;stroke:#000000;stroke-width:3.74753165;stroke-linecap:butt;stroke-linejoin:miter;stroke-miterlimit:4;stroke-opacity:1"
         d="m 107.83218,394.81721 c 0,0 -14.474993,-17.95504 -17.855873,-9.36691 0.42261,5.24962 13.022813,12.09532 -5.401548,27.7857 5.664412,9.75524 23.257421,-18.41879 23.257421,-18.41879 z"
         id="path11200"
         sodipodi:nodetypes="cccc"
         inkscape:export-filename="/home/comum/newton/Inkscape/path3579.png"
         inkscape:export-xdpi="90.000000"
         inkscape:export-ydpi="90.000000"
         inkscape:connector-curvature="0" />
      <path
         style="fill:#00fe00;fill-opacity:1;fill-rule:evenodd;stroke:#000000;stroke-width:4.77292776;stroke-linecap:butt;stroke-linejoin:miter;stroke-miterlimit:4;stroke-opacity:1"
         d="m 305.49516,857.74399 c 2.04277,-2.56148 10.36644,-7.59129 -6.16721,-10.31812 -36.3529,-6.29187 -45.36771,-4.30427 -50.77315,7.06109 6.9782,11.37918 50.81205,6.58696 56.94036,3.25703 z"
         id="path11960"
         sodipodi:nodetypes="cccc"
         inkscape:export-filename="/home/comum/newton/Inkscape/path3579.png"
         inkscape:export-xdpi="90.000000"
         inkscape:export-ydpi="90.000000"
         inkscape:connector-curvature="0" />
      <path
         style="fill:#00fe00;fill-opacity:1;fill-rule:evenodd;stroke:#000000;stroke-width:4.77292776;stroke-linecap:butt;stroke-linejoin:miter;stroke-miterlimit:4;stroke-opacity:1"
         d="m 425.93525,840.97091 c 1.21787,-2.93829 7.77479,-9.68766 -8.99953,-8.5655 -36.96947,2.18111 -45.09102,6.14896 -46.96102,18.35505 10.09576,9.40615 51.02295,-5.18088 55.96055,-9.78955 z"
         id="path11962"
         sodipodi:nodetypes="cccc"
         inkscape:export-filename="/home/comum/newton/Inkscape/path3579.png"
         inkscape:export-xdpi="90.000000"
         inkscape:export-ydpi="90.000000"
         inkscape:connector-curvature="0" />
      <path
         style="fill:#000000;fill-opacity:1;fill-rule:nonzero;stroke:none"
         id="path14238"
         d="m 105.1056,207.92954 c 6.29917,0.95985 13.01617,2.56967 19.91931,3.48682 21.28096,2.07734 34.2634,-5.55064 -1.59435,7.93206 7.41597,-2.91164 6.67531,-5.39242 7.17403,-8.44339 1.08165,-2.97525 3.13381,-5.91324 5.42899,-8.92457 26.95855,-11.6951 26.61935,-11.39022 48.82367,-8.73856 25.16344,-1.30602 30.16869,-5.62407 0.3166,4.96716 0.36936,-3.44693 -1.95819,-6.56642 -1.74406,-9.95239 26.76988,-13.04119 24.93548,-9.17839 50.31491,-12.71745 16.57214,-2.09306 49.51729,-12.78028 -3.1833,3.14948 1.31957,-3.32975 1.96168,-6.34105 0.90049,-9.47242 -6.25905,-6.24704 18.88969,-15.68218 37.90407,-15.33769 7.21027,1.52423 12.44117,1.24972 21.85349,-0.26854 -28.86528,12.22803 -19.27433,8.35413 -23.04651,0.30009 -2.53647,-6.83406 26.54253,-16.15961 42.31263,-13.78544 6.60446,0.50039 12.96955,0.97981 19.99433,0.91919 20.08678,-6.90561 -24.69709,14.04819 -9.8053,2.55739 0.66652,-3.1795 -1.61514,-5.46207 -6.07065,-7.58239 l 25.7086,-9.41078 c 4.65717,2.2355 7.16616,4.65385 6.99149,7.92947 -3.28716,6.42327 -21.89218,14.10962 -40.32119,16.57109 -7.57068,-0.0709 -14.78197,-0.63563 -21.63229,-1.35786 -24.79044,0.77631 16.79422,-11.79498 8.94742,-5.04164 4.10143,8.71099 5.68793,9.14342 -25.81711,19.14432 -9.69132,1.21459 -15.97159,1.33678 -23.39057,-0.0885 -22.93545,1.68085 19.966,-13.8094 12.52838,-3.74244 1.22079,3.12608 1.72136,6.1523 -0.63867,9.53976 -1.38972,7.98298 -26.60672,13.49948 -46.24816,16.12396 -23.35665,2.92204 -31.39893,3.64201 0.18227,-6.17582 -1.20203,3.15349 -0.003,6.4873 1.1536,9.72288 -16.99587,7.28937 -27.6967,14.49718 -51.56698,13.77208 -20.01988,-2.47816 -30.08003,1.98668 3.27996,-9.65106 -3.00035,2.79697 -6.18015,5.71622 -6.07623,8.64843 -1.46527,3.03154 0.28703,5.82914 -6.24532,8.84866 -24.12598,9.12019 -27.7658,12.94109 -50.95958,10.30377 -7.517693,-1.1445 -15.106068,-2.58049 -21.926827,-3.88947 l 26.532857,-9.33619 z"
         inkscape:export-filename="/home/comum/newton/Inkscape/path3579.png"
         inkscape:export-xdpi="90.000000"
         inkscape:export-ydpi="90.000000"
         inkscape:connector-curvature="0" />
      <path
         style="fill:#000000;fill-opacity:1;fill-rule:nonzero;stroke:none"
         id="path15002"
         d="m 600.34464,204.424 c -6.29917,0.95985 -13.01617,2.56967 -19.91931,3.48682 -21.28096,2.07734 -34.2634,-5.55064 1.59435,7.93207 -7.41597,-2.91165 -6.67531,-5.39243 -7.17403,-8.4434 -1.08165,-2.97525 -3.13381,-5.91324 -5.42899,-8.92456 -26.95855,-11.69511 -26.61935,-11.39023 -48.82367,-8.73857 -25.16344,-1.30602 -30.16869,-5.62407 -0.3166,4.96717 -0.36936,-3.44694 1.95819,-6.56643 1.74406,-9.9524 -26.76988,-13.04118 -24.93548,-9.17838 -50.31491,-12.71744 -16.57214,-2.09307 -49.51729,-12.78029 3.1833,3.14947 -1.31957,-3.32975 -1.96168,-6.34105 -0.90049,-9.47242 6.25905,-6.24704 -18.88969,-15.68218 -37.90407,-15.33768 -7.21027,1.52423 -12.44117,1.24971 -21.85349,-0.26855 28.86528,12.22803 19.27433,8.35413 23.04651,0.30009 2.53647,-6.83406 -26.54253,-16.1596 -42.31263,-13.78544 -6.60446,0.5004 -12.96955,0.97981 -19.99433,0.9192 -20.08678,-6.90562 24.69709,14.04818 9.8053,2.55738 -0.66652,-3.1795 1.61514,-5.46207 6.07065,-7.58239 l -25.7086,-9.41078 c -4.65717,2.2355 -7.16616,4.65385 -6.99149,7.92947 3.28716,6.42327 21.89218,14.10962 40.32119,16.57109 7.57068,-0.0709 14.78197,-0.63563 21.63229,-1.35786 24.79044,0.77631 -16.79422,-11.79498 -8.94742,-5.04163 -4.10143,8.71098 -5.68793,9.14341 25.81711,19.14431 9.69132,1.2146 15.97159,1.33678 23.39057,-0.0885 22.93545,1.68085 -19.966,-13.8094 -12.52838,-3.74244 -1.22079,3.12608 -1.72136,6.1523 0.63867,9.53976 1.38972,7.98298 26.60672,13.49948 46.24816,16.12396 23.35665,2.92204 31.39893,3.64201 -0.18227,-6.17582 1.20203,3.1535 0.003,6.4873 -1.1536,9.72288 16.99587,7.28937 27.6967,14.49718 51.56698,13.77208 20.01988,-2.47816 30.08003,1.98669 -3.27996,-9.65106 3.00035,2.79697 6.18015,5.71622 6.07623,8.64843 1.46527,3.03154 -0.28703,5.82914 6.24532,8.84866 24.12598,9.12019 27.7658,12.94109 50.95958,10.30377 7.51769,-1.1445 15.10607,-2.58049 21.92683,-3.88947 l -26.53286,-9.3362 z"
         inkscape:export-filename="/home/comum/newton/Inkscape/path3579.png"
         inkscape:export-xdpi="90.000000"
         inkscape:export-ydpi="90.000000"
         inkscape:connector-curvature="0" />
      <path
         style="fill:#00fe00;fill-opacity:1;fill-rule:evenodd;stroke:#000000;stroke-width:3.75690055;stroke-linecap:butt;stroke-linejoin:miter;stroke-miterlimit:4;stroke-opacity:1"
         d="M 362.94756,127.46568 315.7571,95.655727 303.33856,123.22435 365.43127,133.82767 427.52398,110.50038 400.20319,91.414405 362.94756,127.46568 z"
         id="path11198"
         inkscape:export-filename="/home/comum/newton/Inkscape/path3579.png"
         inkscape:export-xdpi="90.000000"
         inkscape:export-ydpi="90.000000"
         inkscape:connector-curvature="0" />
      <path
         sodipodi:nodetypes="ccccc"
         style="fill:#ffc886;fill-opacity:1;fill-rule:evenodd;stroke:#000000;stroke-width:3.74753165;stroke-linecap:butt;stroke-linejoin:miter;stroke-miterlimit:4;stroke-opacity:1"
         d="m 473.26344,217.78184 c 0,55.14919 -64.69931,110.42458 -119.81353,110.42458 -55.11423,0 -111.82596,-30.73659 -111.82596,-85.88578 0,-55.1492 56.71173,-113.93014 111.82596,-113.93014 55.11422,0 119.81353,34.24215 119.81353,89.39134 z"
         id="path1291"
         inkscape:export-filename="/home/comum/newton/Inkscape/path3579.png"
         inkscape:export-xdpi="90.000000"
         inkscape:export-ydpi="90.000000"
         inkscape:connector-curvature="0" />
      <path
         sodipodi:type="arc"
         style="fill:#000000;fill-opacity:1;stroke:#000000;stroke-width:4;stroke-miterlimit:4;stroke-opacity:1"
         id="path6614"
         sodipodi:cx="54.80703"
         sodipodi:cy="274.91431"
         sodipodi:rx="28.418461"
         sodipodi:ry="24.358681"
         d="m 83.225491,274.91431 c 0,13.45292 -12.723379,24.35868 -28.418461,24.35868 -15.695083,0 -28.418461,-10.90576 -28.418461,-24.35868 0,-13.45293 12.723378,-24.35868 28.418461,-24.35868 15.695082,0 28.418461,10.90575 28.418461,24.35868 z"
         transform="matrix(0.199214,0,0,0.201792,329.0763,179.5526)"
         inkscape:export-filename="/home/comum/newton/Inkscape/path3579.png"
         inkscape:export-xdpi="90.000000"
         inkscape:export-ydpi="90.000000" />
      <path
         sodipodi:type="arc"
         style="fill:#000000;fill-opacity:1;stroke:#000000;stroke-width:4;stroke-miterlimit:4;stroke-opacity:1"
         id="path8132"
         sodipodi:cx="54.80703"
         sodipodi:cy="274.91431"
         sodipodi:rx="28.418461"
         sodipodi:ry="24.358681"
         d="m 83.225491,274.91431 c 0,13.45292 -12.723379,24.35868 -28.418461,24.35868 -15.695083,0 -28.418461,-10.90576 -28.418461,-24.35868 0,-13.45293 12.723378,-24.35868 28.418461,-24.35868 15.695082,0 28.418461,10.90575 28.418461,24.35868 z"
         transform="matrix(0.199214,0,0,0.201792,362.9706,179.5526)"
         inkscape:export-filename="/home/comum/newton/Inkscape/path3579.png"
         inkscape:export-xdpi="90.000000"
         inkscape:export-ydpi="90.000000" />
      <path
         style="fill:none;stroke:#000000;stroke-width:3.78271317;stroke-linecap:butt;stroke-linejoin:miter;stroke-miterlimit:4;stroke-opacity:1"
         d="m 311.28026,256.60414 c 28.38099,73.31017 74.5416,60.27927 92.28959,8.03723"
         id="path8136"
         sodipodi:nodetypes="cc"
         inkscape:export-filename="/home/comum/newton/Inkscape/path3579.png"
         inkscape:export-xdpi="90.000000"
         inkscape:export-ydpi="90.000000"
         inkscape:connector-curvature="0" />
      <path
         style="fill:#000000;fill-opacity:1;fill-rule:nonzero;stroke:none"
         id="path15004"
         d="m 557.90868,255.82037 c -5.5025,-0.5039 -11.51937,-0.47489 -17.51513,-1.15724 -18.29256,-2.82801 -27.18534,-13.1454 -0.69035,8.02399 -5.4482,-4.49718 -4.19785,-6.72517 -3.83672,-9.78548 -0.14474,-3.11959 -1.10905,-6.42369 -2.25754,-9.85381 -19.52231,-17.42101 -19.31687,-17.04945 -38.5265,-19.53249 -20.67116,-6.97811 -23.74877,-12.2861 -1.52994,4.726 0.57001,-3.4134 3.30768,-5.89783 3.99172,-9.21708 -19.02184,-18.67834 -18.47494,-14.53043 -38.7574,-23.71455 -13.29944,-5.78658 -38.07559,-23.59407 1.8546,3.76533 -0.253,-3.51607 -0.0217,-6.57064 1.66201,-9.35423 6.81623,-4.61225 -11.7713,-19.43915 -27.7304,-23.42604 -6.4068,-0.16573 -10.70309,-1.61924 -18.1727,-5.22404 20.97807,18.36894 13.9596,12.44818 19.16047,5.52553 3.85857,-6.02496 -18.03747,-21.63887 -31.80574,-22.92822 -5.64026,-1.01705 -11.07536,-1.99998 -16.9235,-3.6544 -15.00686,-11.2336 17.03509,19.18015 7.53284,4.69779 0.25382,-3.22258 2.73994,-4.90902 6.99923,-5.9449 l -19.06104,-14.93056 c -4.45697,1.10132 -7.16744,2.86728 -7.8563,6.07097 1.1071,6.95118 14.67818,18.60228 29.43369,25.16654 6.33732,1.65142 12.50048,2.74417 18.40248,3.6028 20.49479,6.3817 -11.01269,-15.20836 -6.18377,-6.90251 -5.6431,7.48242 -7.07754,7.53968 16.67144,24.35707 7.77987,3.37487 12.99088,4.91963 19.54669,5.22834 18.71593,6.83402 -13.1469,-17.8747 -9.50385,-6.46109 -1.81555,2.74222 -3.00448,5.55161 -1.89771,9.35979 -0.87412,8.02668 18.76888,19.08397 34.49487,26.08113 18.75126,8.12859 25.2807,10.65106 1.4215,-6.0068 0.1998,3.31912 -1.6504,6.26696 -3.44037,9.12952 12.32908,10.90208 19.42446,20.29529 39.53377,25.0177 17.34206,2.15436 24.6016,8.75252 -0.27862,-10.06735 1.7917,3.38329 3.70203,6.92545 2.86814,9.73413 0.4506,3.26113 -1.7249,5.56532 2.95827,9.96596 17.81408,14.29032 19.87864,18.80792 39.91052,21.52958 6.56665,0.60236 13.26658,0.93921 19.29341,1.22436 l -19.76807,-15.04574 z"
         inkscape:export-filename="/home/comum/newton/Inkscape/path3579.png"
         inkscape:export-xdpi="90.000000"
         inkscape:export-ydpi="90.000000"
         inkscape:connector-curvature="0" />
      <path
         style="fill:#000000;fill-opacity:1;fill-rule:nonzero;stroke:none"
         id="path15000"
         d="m 163.12973,303.38949 c 6.00201,-1.9333 12.73611,-3.48707 19.23685,-5.72241 19.61319,-7.54064 26.51112,-19.84434 3.13767,7.56909 4.76383,-5.77625 2.70925,-7.59961 1.4032,-10.4607 -0.75807,-3.05135 -0.65445,-6.49637 -0.38213,-10.11154 16.6848,-21.9597 16.56472,-21.54679 37.30471,-28.99531 21.04823,-12.17465 22.92317,-18.11085 3.10368,4.16275 -1.64364,-3.14723 -5.43633,-4.82729 -7.17968,-7.85361 15.75464,-23.04261 16.36641,-18.89226 36.32966,-33.09556 13.1596,-9.08575 35.60308,-32.79995 -0.96276,4.12459 -0.75398,-3.46278 -1.91325,-6.35244 -4.61602,-8.59856 -8.97905,-2.66315 7.42578,-21.87138 24.08896,-29.91796 7.11253,-1.84439 11.48625,-4.37784 18.7727,-9.82352 -18.0325,23.25804 -11.93322,15.69391 -19.78791,10.37442 -6.0896,-4.80527 13.78136,-25.64348 28.79109,-30.50849 6.00467,-2.46517 11.7901,-4.84347 17.8392,-7.97896 13.46196,-14.79602 -13.38591,23.00502 -7.03485,6.51806 -1.23394,-3.04605 -4.51016,-4.02144 -9.57655,-3.90229 l 16.90355,-19.43283 c 5.30666,-0.10792 8.85708,0.88531 10.57174,3.79874 0.81218,7.00537 -10.9218,21.82721 -25.47964,32.04694 -6.59679,3.26118 -13.16364,5.93696 -19.5076,8.31792 -21.02694,11.5522 7.82534,-17.5853 4.87678,-8.29298 8.51406,5.74393 10.13433,5.42214 -11.45293,27.90994 -7.70106,5.30514 -13.07032,8.16721 -20.30726,10.18887 -18.90519,11.52146 9.42471,-20.72186 8.71807,-8.73942 2.83797,2.17148 4.99532,4.57258 4.88111,8.54196 3.34387,7.52338 -15.35228,23.36792 -30.86726,34.26091 -18.56294,12.7812 -25.11764,16.93427 -3.36013,-5.42841 0.75537,3.25855 3.69271,5.61953 6.53757,7.91398 -10.56655,13.77184 -15.72789,24.71031 -36.8132,34.55841 -18.74939,6.64007 -24.91838,14.92189 -2.6571,-9.79755 -1.00511,3.73903 -2.09598,7.6627 -0.33568,10.15646 0.45792,3.26847 3.56908,4.92222 -0.36807,10.40409 -15.6985,18.48659 -16.67414,23.39301 -38.26287,31.28819 -7.16246,2.30816 -14.55218,4.39491 -21.20478,6.25475 l 17.65988,-19.72997 z"
         inkscape:export-filename="/home/comum/newton/Inkscape/path3579.png"
         inkscape:export-xdpi="90.000000"
         inkscape:export-ydpi="90.000000"
         inkscape:connector-curvature="0" />
      <path
         style="fill:#000000;fill-opacity:1;fill-rule:nonzero;stroke:none"
         id="path14998"
         d="m 130.68041,255.82037 c 6.36756,-0.5039 13.33036,-0.47489 20.26872,-1.15724 21.16837,-2.82801 31.45921,-13.1454 0.79888,8.02399 6.30473,-4.49718 4.85781,-6.72517 4.4399,-9.78548 0.1675,-3.11959 1.28341,-6.42369 2.61245,-9.85381 22.59146,-17.42101 22.35372,-17.04945 44.58333,-19.53249 23.92092,-6.97811 27.48237,-12.2861 1.77047,4.726 -0.65962,-3.4134 -3.82769,-5.89783 -4.61927,-9.21708 22.01231,-18.67834 21.37943,-14.53043 44.85053,-23.71455 15.39028,-5.78658 44.06154,-23.59407 -2.14616,3.76533 0.29277,-3.51607 0.0251,-6.57064 -1.9233,-9.35423 -7.88782,-4.61225 13.62189,-19.43915 32.08995,-23.42604 7.41403,-0.16573 12.38575,-1.61924 21.02967,-5.22404 -24.27608,18.36894 -16.15422,12.44818 -22.17273,5.52553 -4.46518,-6.02496 20.87318,-21.63887 36.80599,-22.92822 6.52697,-1.01705 12.81654,-1.99998 19.58408,-3.6544 17.36611,-11.2336 -19.71321,19.18015 -8.7171,4.69779 -0.29372,-3.22258 -3.17069,-4.90902 -8.09959,-5.9449 l 22.05767,-14.93056 c 5.15766,1.10132 8.29424,2.86728 9.0914,6.07097 -1.28115,6.95118 -16.98577,18.60228 -34.06102,25.16654 -7.33362,1.65142 -14.46571,2.74417 -21.29557,3.6028 -23.71682,6.3817 12.74402,-15.20836 7.15593,-6.90251 6.53026,7.48242 8.19021,7.53968 -19.29239,24.35707 -9.00296,3.37487 -15.0332,4.91963 -22.61966,5.22834 -21.65831,6.83402 15.21375,-17.8747 10.99797,-6.46109 2.10097,2.74222 3.47681,5.55161 2.19605,9.35979 1.01154,8.02668 -21.71958,19.08397 -39.91788,26.08113 -21.69918,8.12859 -29.25513,10.65106 -1.64498,-6.0068 -0.23121,3.31912 1.90987,6.26696 3.98124,9.12952 -14.26736,10.90208 -22.47822,20.29529 -45.74895,25.0177 -20.06845,2.15436 -28.46927,8.75252 0.32242,-10.06735 -2.07338,3.38329 -4.28404,6.92545 -3.31905,9.73413 -0.52144,3.26113 1.99607,5.56532 -3.42334,9.96596 -20.61467,14.29032 -23.00381,18.80792 -46.18494,21.52958 -7.59901,0.60236 -15.35224,0.93921 -22.32656,1.22436 l 22.87584,-15.04574 z"
         inkscape:export-filename="/home/comum/newton/Inkscape/path3579.png"
         inkscape:export-xdpi="90.000000"
         inkscape:export-ydpi="90.000000"
         inkscape:connector-curvature="0" />
      <path
         style="fill:#000000;fill-opacity:1;fill-rule:nonzero;stroke:none"
         id="path15006"
         d="m 429.151,221.54404 c -2.38657,-1.02215 -5.06424,-1.84365 -7.64911,-3.02548 -7.79876,-3.98677 -10.54157,-10.49179 -1.24763,4.00181 -1.89423,-3.05392 -1.07727,-4.01795 -0.55795,-5.53062 0.30143,-1.61326 0.26023,-3.43466 0.15194,-5.34601 -6.63434,-11.61019 -6.58659,-11.39189 -14.8334,-15.32996 -8.36937,-6.43679 -9.1149,-9.57529 -1.23411,2.20087 0.65356,-1.66396 2.16164,-2.55221 2.85484,-4.15224 -6.26449,-12.18274 -6.50774,-9.98843 -14.44569,-17.49778 -5.23263,-4.80368 -14.15679,-17.34148 0.38282,2.18069 0.2998,-1.83079 0.76076,-3.35856 1.83546,-4.5461 3.57032,-1.40802 -2.9527,-11.5635 -9.57845,-15.81776 -2.82815,-0.97514 -4.56726,-2.31459 -7.46456,-5.19374 7.17023,12.29663 4.74499,8.29744 7.86823,5.485 2.4214,-2.54057 -5.47986,-13.55783 -11.44815,-16.12998 -2.38762,-1.30335 -4.68807,-2.56077 -7.09337,-4.21851 -5.35285,-7.82273 5.32262,12.16286 2.79726,3.44612 0.49065,-1.61046 1.79337,-2.12615 3.8079,-2.06316 l -6.72132,-10.27422 c -2.11008,-0.0571 -3.52183,0.46807 -4.20363,2.0084 -0.32294,3.70378 4.34282,11.54016 10.13143,16.94338 2.62307,1.7242 5.23423,3.13889 7.75677,4.39772 8.3609,6.1077 -3.11158,-9.29743 -1.93915,-4.38454 -3.38543,3.03684 -4.02969,2.86671 4.55401,14.75611 3.06216,2.80486 5.19713,4.31805 8.07474,5.38691 7.51724,6.09145 -3.74753,-10.95574 -3.46655,-4.62057 -1.12846,1.14807 -1.98628,2.41754 -1.94087,4.51617 -1.32961,3.97765 6.1045,12.35473 12.2737,18.11391 7.38115,6.75748 9.98748,8.95322 1.33608,-2.87003 -0.30036,1.72281 -1.46833,2.97107 -2.59952,4.18416 4.20156,7.28123 6.25385,13.06445 14.63796,18.27119 7.45529,3.51064 9.90825,7.88927 1.05654,-5.18001 0.39966,1.97684 0.83342,4.0513 0.13348,5.36976 -0.18208,1.72806 -1.41917,2.60241 0.14635,5.5007 6.24217,9.77394 6.63011,12.36799 15.2144,16.54221 2.848,1.22033 5.78636,2.3236 8.43162,3.30692 L 429.151,221.54404 z"
         inkscape:export-filename="/home/comum/newton/Inkscape/path3579.png"
         inkscape:export-xdpi="90.000000"
         inkscape:export-ydpi="90.000000"
         inkscape:connector-curvature="0" />
      <path
         sodipodi:type="arc"
         style="fill:url(#radialGradient3052);fill-opacity:1;stroke:none"
         id="path15008"
         sodipodi:cx="-97.847717"
         sodipodi:cy="213.66747"
         sodipodi:rx="33.947166"
         sodipodi:ry="35.944057"
         d="m -63.900551,213.66747 c 0,19.85135 -15.198664,35.94405 -33.947166,35.94405 -18.748503,0 -33.947163,-16.0927 -33.947163,-35.94405 0,-19.85136 15.19866,-35.94406 33.947163,-35.94406 18.748502,0 33.947166,16.0927 33.947166,35.94406 z"
         transform="matrix(1,0,0,0.87775,395.3847,67.04898)"
         inkscape:export-filename="/home/comum/newton/Inkscape/path3579.png"
         inkscape:export-xdpi="90.000000"
         inkscape:export-ydpi="90.000000" />
      <path
         sodipodi:type="arc"
         style="fill:url(#radialGradient3054);fill-opacity:1;stroke:none"
         id="path15776"
         sodipodi:cx="-97.847717"
         sodipodi:cy="213.66747"
         sodipodi:rx="33.947166"
         sodipodi:ry="35.944057"
         d="m -63.900551,213.66747 c 0,19.85135 -15.198664,35.94405 -33.947166,35.94405 -18.748503,0 -33.947163,-16.0927 -33.947163,-35.94405 0,-19.85136 15.19866,-35.94406 33.947163,-35.94406 18.748502,0 33.947166,16.0927 33.947166,35.94406 z"
         transform="matrix(1,0,0,0.87775,499.2231,77.56561)"
         inkscape:export-filename="/home/comum/newton/Inkscape/path3579.png"
         inkscape:export-xdpi="90.000000"
         inkscape:export-ydpi="90.000000" />
    </g>
  </g>
</svg>
