<?xml version="1.0" encoding="UTF-8" standalone="no"?>
<!-- Created with Inkscape (http://www.inkscape.org/) -->
<svg
   xmlns:dc="http://purl.org/dc/elements/1.1/"
   xmlns:cc="http://web.resource.org/cc/"
   xmlns:rdf="http://www.w3.org/1999/02/22-rdf-syntax-ns#"
   xmlns:svg="http://www.w3.org/2000/svg"
   xmlns="http://www.w3.org/2000/svg"
   xmlns:xlink="http://www.w3.org/1999/xlink"
   xmlns:sodipodi="http://sodipodi.sourceforge.net/DTD/sodipodi-0.dtd"
   xmlns:inkscape="http://www.inkscape.org/namespaces/inkscape"
   width="875.88501"
   height="656.15442"
   id="svg2"
   inkscape:label="Pozadí"
   sodipodi:version="0.32"
   inkscape:version="0.44.1"
   version="1.0"
   sodipodi:docbase="D:\_petr_\School\INKSCAPE\svg\06.Zvirata"
   sodipodi:docname="ryba.svg">
  <defs
     id="defs3">
    <linearGradient
       id="linearGradient13672">
      <stop
         style="stop-color:#00ff0e;stop-opacity:1;"
         offset="0"
         id="stop13674" />
      <stop
         style="stop-color:black;stop-opacity:0;"
         offset="1"
         id="stop13676" />
    </linearGradient>
    <linearGradient
       id="linearGradient10968">
      <stop
         style="stop-color:#dcff00;stop-opacity:1;"
         offset="0"
         id="stop10970" />
      <stop
         style="stop-color:black;stop-opacity:0;"
         offset="1"
         id="stop10972" />
    </linearGradient>
    <linearGradient
       inkscape:collect="always"
       id="linearGradient10073">
      <stop
         style="stop-color:#ff2a2a;stop-opacity:1;"
         offset="0"
         id="stop10075" />
      <stop
         style="stop-color:#ff2a2a;stop-opacity:0;"
         offset="1"
         id="stop10077" />
    </linearGradient>
    <linearGradient
       id="linearGradient9147">
      <stop
         style="stop-color:#5354ff;stop-opacity:1;"
         offset="0"
         id="stop9149" />
      <stop
         style="stop-color:black;stop-opacity:0;"
         offset="1"
         id="stop9151" />
    </linearGradient>
    <linearGradient
       id="linearGradient7361">
      <stop
         style="stop-color:#0d00ff;stop-opacity:1;"
         offset="0"
         id="stop7363" />
      <stop
         style="stop-color:black;stop-opacity:0;"
         offset="1"
         id="stop7365" />
    </linearGradient>
    <linearGradient
       id="linearGradient4688">
      <stop
         style="stop-color:#ff4100;stop-opacity:1;"
         offset="0"
         id="stop4690" />
      <stop
         style="stop-color:red;stop-opacity:0;"
         offset="1"
         id="stop4692" />
    </linearGradient>
    <linearGradient
       inkscape:collect="always"
       id="linearGradient27142">
      <stop
         style="stop-color:#57d544;stop-opacity:1;"
         offset="0"
         id="stop27144" />
      <stop
         style="stop-color:#57d544;stop-opacity:0;"
         offset="1"
         id="stop27146" />
    </linearGradient>
    <linearGradient
       inkscape:collect="always"
       id="linearGradient19926">
      <stop
         style="stop-color:#ffa4a4;stop-opacity:1;"
         offset="0"
         id="stop19928" />
      <stop
         style="stop-color:#ffa4a4;stop-opacity:0;"
         offset="1"
         id="stop19930" />
    </linearGradient>
    <linearGradient
       inkscape:collect="always"
       id="linearGradient18124">
      <stop
         style="stop-color:red;stop-opacity:1;"
         offset="0"
         id="stop18126" />
      <stop
         style="stop-color:red;stop-opacity:0;"
         offset="1"
         id="stop18128" />
    </linearGradient>
    <linearGradient
       inkscape:collect="always"
       id="linearGradient17227">
      <stop
         style="stop-color:#49d636;stop-opacity:1;"
         offset="0"
         id="stop17229" />
      <stop
         style="stop-color:#49d636;stop-opacity:0;"
         offset="1"
         id="stop17231" />
    </linearGradient>
    <linearGradient
       inkscape:collect="always"
       id="linearGradient14544">
      <stop
         style="stop-color:yellow;stop-opacity:1;"
         offset="0"
         id="stop14546" />
      <stop
         style="stop-color:yellow;stop-opacity:0;"
         offset="1"
         id="stop14548" />
    </linearGradient>
    <marker
       inkscape:stockid="StopM"
       orient="auto"
       refY="0"
       refX="0"
       id="StopM"
       style="overflow:visible">
      <path
         id="path9058"
         d="M 0,5.65 L 0,-5.65"
         style="fill:none;fill-opacity:0.75;fill-rule:evenodd;stroke:black;stroke-width:1pt"
         transform="scale(0.4,0.4)" />
    </marker>
    <marker
       inkscape:stockid="StopS"
       orient="auto"
       refY="0"
       refX="0"
       id="StopS"
       style="overflow:visible">
      <path
         id="path9055"
         d="M 0,5.65 L 0,-5.65"
         style="fill:none;fill-opacity:0.75;fill-rule:evenodd;stroke:black;stroke-width:1pt"
         transform="scale(0.2,0.2)" />
    </marker>
    <linearGradient
       id="linearGradient3664">
      <stop
         style="stop-color:#ff6400;stop-opacity:1;"
         offset="0"
         id="stop3666" />
      <stop
         style="stop-color:#e5d7ce;stop-opacity:0;"
         offset="1"
         id="stop3668" />
    </linearGradient>
    <linearGradient
       inkscape:collect="always"
       xlink:href="#linearGradient3664"
       id="linearGradient10983"
       gradientUnits="userSpaceOnUse"
       x1="98.9272"
       y1="378.85931"
       x2="243.75391"
       y2="520.48224"
       gradientTransform="matrix(1.649179,0,0,1.6,214.4259,-68.97232)" />
    <linearGradient
       inkscape:collect="always"
       xlink:href="#linearGradient14544"
       id="linearGradient14550"
       x1="437.0174"
       y1="564.61029"
       x2="174.52179"
       y2="456.34808"
       gradientUnits="userSpaceOnUse"
       gradientTransform="translate(147.9158,189.6523)" />
    <linearGradient
       inkscape:collect="always"
       xlink:href="#linearGradient17227"
       id="linearGradient17235"
       x1="651.69495"
       y1="437.55994"
       x2="885.29919"
       y2="368.66226"
       gradientUnits="userSpaceOnUse"
       gradientTransform="translate(24.49694,148.5127)" />
    <linearGradient
       inkscape:collect="always"
       xlink:href="#linearGradient18124"
       id="linearGradient18130"
       x1="848.65588"
       y1="419.18723"
       x2="589.80481"
       y2="249.23972"
       gradientUnits="userSpaceOnUse"
       gradientTransform="translate(24.49694,148.5127)" />
    <linearGradient
       inkscape:collect="always"
       xlink:href="#linearGradient19926"
       id="linearGradient23567"
       gradientUnits="userSpaceOnUse"
       x1="-483.06592"
       y1="566.49597"
       x2="-423.30627"
       y2="508.08292" />
    <linearGradient
       inkscape:collect="always"
       xlink:href="#linearGradient19926"
       id="linearGradient23569"
       gradientUnits="userSpaceOnUse"
       x1="-527.02966"
       y1="465.00967"
       x2="-422.4978"
       y2="508.08292" />
    <linearGradient
       inkscape:collect="always"
       xlink:href="#linearGradient19926"
       id="linearGradient23571"
       gradientUnits="userSpaceOnUse"
       x1="-445.55658"
       y1="465.45093"
       x2="-551.53113"
       y2="550.7149" />
    <linearGradient
       inkscape:collect="always"
       xlink:href="#linearGradient19926"
       id="linearGradient23573"
       gradientUnits="userSpaceOnUse"
       x1="-493.24374"
       y1="447.22736"
       x2="-462.01776"
       y2="539.84393" />
    <linearGradient
       inkscape:collect="always"
       xlink:href="#linearGradient19926"
       id="linearGradient23575"
       gradientUnits="userSpaceOnUse"
       x1="-513.08301"
       y1="508.08292"
       x2="-444.04016"
       y2="551.36688" />
    <linearGradient
       inkscape:collect="always"
       xlink:href="#linearGradient19926"
       id="linearGradient23577"
       gradientUnits="userSpaceOnUse"
       x1="-485.09967"
       y1="534.6629"
       x2="-398.94958"
       y2="592.58789" />
    <linearGradient
       inkscape:collect="always"
       xlink:href="#linearGradient19926"
       id="linearGradient23579"
       gradientUnits="userSpaceOnUse"
       x1="-512.95874"
       y1="508.08292"
       x2="-401.85675"
       y2="576.32275" />
    <linearGradient
       inkscape:collect="always"
       xlink:href="#linearGradient27142"
       id="linearGradient27148"
       x1="606.96783"
       y1="345.7486"
       x2="747.26526"
       y2="230.79828"
       gradientUnits="userSpaceOnUse" />
    <linearGradient
       inkscape:collect="always"
       xlink:href="#linearGradient19926"
       id="linearGradient29067"
       gradientUnits="userSpaceOnUse"
       x1="-483.06592"
       y1="566.49597"
       x2="-423.30627"
       y2="508.08292" />
    <linearGradient
       inkscape:collect="always"
       xlink:href="#linearGradient19926"
       id="linearGradient29069"
       gradientUnits="userSpaceOnUse"
       x1="-527.02966"
       y1="465.00967"
       x2="-422.4978"
       y2="508.08292" />
    <linearGradient
       inkscape:collect="always"
       xlink:href="#linearGradient19926"
       id="linearGradient29071"
       gradientUnits="userSpaceOnUse"
       x1="-445.55658"
       y1="465.45093"
       x2="-551.53113"
       y2="550.7149" />
    <linearGradient
       inkscape:collect="always"
       xlink:href="#linearGradient19926"
       id="linearGradient29073"
       gradientUnits="userSpaceOnUse"
       x1="-493.24374"
       y1="447.22736"
       x2="-462.01776"
       y2="539.84393" />
    <linearGradient
       inkscape:collect="always"
       xlink:href="#linearGradient19926"
       id="linearGradient29075"
       gradientUnits="userSpaceOnUse"
       x1="-513.08301"
       y1="508.08292"
       x2="-444.04016"
       y2="551.36688" />
    <linearGradient
       inkscape:collect="always"
       xlink:href="#linearGradient19926"
       id="linearGradient29077"
       gradientUnits="userSpaceOnUse"
       x1="-485.09967"
       y1="534.6629"
       x2="-398.94958"
       y2="592.58789" />
    <linearGradient
       inkscape:collect="always"
       xlink:href="#linearGradient19926"
       id="linearGradient29079"
       gradientUnits="userSpaceOnUse"
       x1="-512.95874"
       y1="508.08292"
       x2="-401.85675"
       y2="576.32275" />
    <linearGradient
       inkscape:collect="always"
       xlink:href="#linearGradient18124"
       id="linearGradient1968"
       gradientUnits="userSpaceOnUse"
       gradientTransform="translate(-36.16137,-19.2546)"
       x1="848.65588"
       y1="419.18723"
       x2="589.80481"
       y2="249.23972" />
    <linearGradient
       inkscape:collect="always"
       xlink:href="#linearGradient17227"
       id="linearGradient1978"
       gradientUnits="userSpaceOnUse"
       gradientTransform="translate(-36.16137,-19.2546)"
       x1="651.69495"
       y1="437.55994"
       x2="885.29919"
       y2="368.66226" />
    <linearGradient
       inkscape:collect="always"
       xlink:href="#linearGradient14544"
       id="linearGradient1981"
       gradientUnits="userSpaceOnUse"
       gradientTransform="translate(87.25749,19.885)"
       x1="437.0174"
       y1="564.61029"
       x2="174.52179"
       y2="456.34808" />
    <linearGradient
       inkscape:collect="always"
       xlink:href="#linearGradient3664"
       id="linearGradient1984"
       gradientUnits="userSpaceOnUse"
       gradientTransform="matrix(1.649179,0,0,1.6,153.7676,-236.7396)"
       x1="98.9272"
       y1="378.85931"
       x2="243.75391"
       y2="520.48224" />
    <linearGradient
       inkscape:collect="always"
       xlink:href="#linearGradient27142"
       id="linearGradient1988"
       gradientUnits="userSpaceOnUse"
       x1="606.96783"
       y1="345.7486"
       x2="747.26526"
       y2="230.79828"
       gradientTransform="translate(-60.65831,-167.7673)" />
    <linearGradient
       inkscape:collect="always"
       xlink:href="#linearGradient7361"
       id="linearGradient7367"
       x1="969.15265"
       y1="388.27069"
       x2="551.69403"
       y2="288.31134"
       gradientUnits="userSpaceOnUse" />
    <radialGradient
       inkscape:collect="always"
       xlink:href="#linearGradient4688"
       id="radialGradient8260"
       cx="916.48254"
       cy="411.42319"
       fx="916.48254"
       fy="411.42319"
       r="101.75897"
       gradientTransform="matrix(1,0,0,3.254311,0.334025,-928.14)"
       gradientUnits="userSpaceOnUse" />
    <linearGradient
       inkscape:collect="always"
       xlink:href="#linearGradient9147"
       id="linearGradient9153"
       x1="814.72357"
       y1="411.42319"
       x2="1018.2415"
       y2="411.42319"
       gradientUnits="userSpaceOnUse" />
    <linearGradient
       inkscape:collect="always"
       xlink:href="#linearGradient10073"
       id="linearGradient10079"
       x1="535.98859"
       y1="712.17462"
       x2="734.64783"
       y2="630.29602"
       gradientUnits="userSpaceOnUse" />
    <linearGradient
       inkscape:collect="always"
       xlink:href="#linearGradient10968"
       id="linearGradient10974"
       x1="566.03632"
       y1="614.30438"
       x2="597.65863"
       y2="724.77136"
       gradientUnits="userSpaceOnUse" />
    <linearGradient
       inkscape:collect="always"
       xlink:href="#linearGradient13672"
       id="linearGradient13678"
       x1="369.90225"
       y1="695.40625"
       x2="460.00467"
       y2="695.40625"
       gradientUnits="userSpaceOnUse"
       gradientTransform="translate(65.4532,-22.70448)" />
    <linearGradient
       inkscape:collect="always"
       xlink:href="#linearGradient13672"
       id="linearGradient13681"
       gradientUnits="userSpaceOnUse"
       gradientTransform="translate(65.4532,-22.70448)"
       x1="369.90225"
       y1="695.40625"
       x2="460.00467"
       y2="695.40625" />
    <linearGradient
       inkscape:collect="always"
       xlink:href="#linearGradient13672"
       id="linearGradient13852"
       gradientUnits="userSpaceOnUse"
       gradientTransform="translate(65.4532,-22.70448)"
       x1="369.90225"
       y1="695.40625"
       x2="460.00467"
       y2="695.40625" />
    <linearGradient
       inkscape:collect="always"
       xlink:href="#linearGradient9147"
       id="linearGradient13854"
       gradientUnits="userSpaceOnUse"
       x1="814.72357"
       y1="411.42319"
       x2="1018.2415"
       y2="411.42319" />
    <radialGradient
       inkscape:collect="always"
       xlink:href="#linearGradient4688"
       id="radialGradient13856"
       gradientUnits="userSpaceOnUse"
       gradientTransform="matrix(1,0,0,3.254311,0.334025,-928.14)"
       cx="916.48254"
       cy="411.42319"
       fx="916.48254"
       fy="411.42319"
       r="101.75897" />
    <linearGradient
       inkscape:collect="always"
       xlink:href="#linearGradient27142"
       id="linearGradient13858"
       gradientUnits="userSpaceOnUse"
       gradientTransform="translate(-60.65831,-167.7673)"
       x1="606.96783"
       y1="345.7486"
       x2="747.26526"
       y2="230.79828" />
    <linearGradient
       inkscape:collect="always"
       xlink:href="#linearGradient3664"
       id="linearGradient13860"
       gradientUnits="userSpaceOnUse"
       gradientTransform="matrix(1.649179,0,0,1.6,153.7676,-236.7396)"
       x1="98.9272"
       y1="378.85931"
       x2="243.75391"
       y2="520.48224" />
    <linearGradient
       inkscape:collect="always"
       xlink:href="#linearGradient14544"
       id="linearGradient13862"
       gradientUnits="userSpaceOnUse"
       gradientTransform="translate(87.25749,19.885)"
       x1="437.0174"
       y1="564.61029"
       x2="174.52179"
       y2="456.34808" />
    <linearGradient
       inkscape:collect="always"
       xlink:href="#linearGradient17227"
       id="linearGradient13864"
       gradientUnits="userSpaceOnUse"
       gradientTransform="translate(-36.16137,-19.2546)"
       x1="651.69495"
       y1="437.55994"
       x2="885.29919"
       y2="368.66226" />
    <linearGradient
       inkscape:collect="always"
       xlink:href="#linearGradient18124"
       id="linearGradient13866"
       gradientUnits="userSpaceOnUse"
       gradientTransform="translate(-36.16137,-19.2546)"
       x1="848.65588"
       y1="419.18723"
       x2="589.80481"
       y2="249.23972" />
    <linearGradient
       inkscape:collect="always"
       xlink:href="#linearGradient19926"
       id="linearGradient13868"
       gradientUnits="userSpaceOnUse"
       x1="-483.06592"
       y1="566.49597"
       x2="-423.30627"
       y2="508.08292" />
    <linearGradient
       inkscape:collect="always"
       xlink:href="#linearGradient19926"
       id="linearGradient13870"
       gradientUnits="userSpaceOnUse"
       x1="-527.02966"
       y1="465.00967"
       x2="-422.4978"
       y2="508.08292" />
    <linearGradient
       inkscape:collect="always"
       xlink:href="#linearGradient19926"
       id="linearGradient13872"
       gradientUnits="userSpaceOnUse"
       x1="-445.55658"
       y1="465.45093"
       x2="-551.53113"
       y2="550.7149" />
    <linearGradient
       inkscape:collect="always"
       xlink:href="#linearGradient19926"
       id="linearGradient13874"
       gradientUnits="userSpaceOnUse"
       x1="-493.24374"
       y1="447.22736"
       x2="-462.01776"
       y2="539.84393" />
    <linearGradient
       inkscape:collect="always"
       xlink:href="#linearGradient19926"
       id="linearGradient13876"
       gradientUnits="userSpaceOnUse"
       x1="-513.08301"
       y1="508.08292"
       x2="-444.04016"
       y2="551.36688" />
    <linearGradient
       inkscape:collect="always"
       xlink:href="#linearGradient19926"
       id="linearGradient13878"
       gradientUnits="userSpaceOnUse"
       x1="-485.09967"
       y1="534.6629"
       x2="-398.94958"
       y2="592.58789" />
    <linearGradient
       inkscape:collect="always"
       xlink:href="#linearGradient19926"
       id="linearGradient13880"
       gradientUnits="userSpaceOnUse"
       x1="-512.95874"
       y1="508.08292"
       x2="-401.85675"
       y2="576.32275" />
    <linearGradient
       inkscape:collect="always"
       xlink:href="#linearGradient7361"
       id="linearGradient13882"
       gradientUnits="userSpaceOnUse"
       x1="969.15265"
       y1="388.27069"
       x2="551.69403"
       y2="288.31134" />
    <linearGradient
       inkscape:collect="always"
       xlink:href="#linearGradient10073"
       id="linearGradient13884"
       gradientUnits="userSpaceOnUse"
       x1="535.98859"
       y1="712.17462"
       x2="734.64783"
       y2="630.29602" />
    <linearGradient
       inkscape:collect="always"
       xlink:href="#linearGradient10968"
       id="linearGradient13886"
       gradientUnits="userSpaceOnUse"
       x1="566.03632"
       y1="614.30438"
       x2="597.65863"
       y2="724.77136" />
    <linearGradient
       inkscape:collect="always"
       xlink:href="#linearGradient13672"
       id="linearGradient13964"
       gradientUnits="userSpaceOnUse"
       gradientTransform="translate(65.4532,-22.70448)"
       x1="369.90225"
       y1="695.40625"
       x2="460.00467"
       y2="695.40625" />
    <linearGradient
       inkscape:collect="always"
       xlink:href="#linearGradient9147"
       id="linearGradient13966"
       gradientUnits="userSpaceOnUse"
       x1="814.72357"
       y1="411.42319"
       x2="1018.2415"
       y2="411.42319" />
    <radialGradient
       inkscape:collect="always"
       xlink:href="#linearGradient4688"
       id="radialGradient13968"
       gradientUnits="userSpaceOnUse"
       gradientTransform="matrix(1,0,0,3.254311,0.334025,-928.14)"
       cx="916.48254"
       cy="411.42319"
       fx="916.48254"
       fy="411.42319"
       r="101.75897" />
    <linearGradient
       inkscape:collect="always"
       xlink:href="#linearGradient27142"
       id="linearGradient13970"
       gradientUnits="userSpaceOnUse"
       gradientTransform="translate(-60.65831,-167.7673)"
       x1="606.96783"
       y1="345.7486"
       x2="747.26526"
       y2="230.79828" />
    <linearGradient
       inkscape:collect="always"
       xlink:href="#linearGradient3664"
       id="linearGradient13972"
       gradientUnits="userSpaceOnUse"
       gradientTransform="matrix(1.649179,0,0,1.6,153.7676,-236.7396)"
       x1="98.9272"
       y1="378.85931"
       x2="243.75391"
       y2="520.48224" />
    <linearGradient
       inkscape:collect="always"
       xlink:href="#linearGradient14544"
       id="linearGradient13974"
       gradientUnits="userSpaceOnUse"
       gradientTransform="translate(87.25749,19.885)"
       x1="437.0174"
       y1="564.61029"
       x2="174.52179"
       y2="456.34808" />
    <linearGradient
       inkscape:collect="always"
       xlink:href="#linearGradient17227"
       id="linearGradient13976"
       gradientUnits="userSpaceOnUse"
       gradientTransform="translate(-36.16137,-19.2546)"
       x1="651.69495"
       y1="437.55994"
       x2="885.29919"
       y2="368.66226" />
    <linearGradient
       inkscape:collect="always"
       xlink:href="#linearGradient18124"
       id="linearGradient13978"
       gradientUnits="userSpaceOnUse"
       gradientTransform="translate(-36.16137,-19.2546)"
       x1="848.65588"
       y1="419.18723"
       x2="589.80481"
       y2="249.23972" />
    <linearGradient
       inkscape:collect="always"
       xlink:href="#linearGradient19926"
       id="linearGradient13980"
       gradientUnits="userSpaceOnUse"
       x1="-483.06592"
       y1="566.49597"
       x2="-423.30627"
       y2="508.08292" />
    <linearGradient
       inkscape:collect="always"
       xlink:href="#linearGradient19926"
       id="linearGradient13982"
       gradientUnits="userSpaceOnUse"
       x1="-527.02966"
       y1="465.00967"
       x2="-422.4978"
       y2="508.08292" />
    <linearGradient
       inkscape:collect="always"
       xlink:href="#linearGradient19926"
       id="linearGradient13984"
       gradientUnits="userSpaceOnUse"
       x1="-445.55658"
       y1="465.45093"
       x2="-551.53113"
       y2="550.7149" />
    <linearGradient
       inkscape:collect="always"
       xlink:href="#linearGradient19926"
       id="linearGradient13986"
       gradientUnits="userSpaceOnUse"
       x1="-493.24374"
       y1="447.22736"
       x2="-462.01776"
       y2="539.84393" />
    <linearGradient
       inkscape:collect="always"
       xlink:href="#linearGradient19926"
       id="linearGradient13988"
       gradientUnits="userSpaceOnUse"
       x1="-513.08301"
       y1="508.08292"
       x2="-444.04016"
       y2="551.36688" />
    <linearGradient
       inkscape:collect="always"
       xlink:href="#linearGradient19926"
       id="linearGradient13990"
       gradientUnits="userSpaceOnUse"
       x1="-485.09967"
       y1="534.6629"
       x2="-398.94958"
       y2="592.58789" />
    <linearGradient
       inkscape:collect="always"
       xlink:href="#linearGradient19926"
       id="linearGradient13992"
       gradientUnits="userSpaceOnUse"
       x1="-512.95874"
       y1="508.08292"
       x2="-401.85675"
       y2="576.32275" />
    <linearGradient
       inkscape:collect="always"
       xlink:href="#linearGradient7361"
       id="linearGradient13994"
       gradientUnits="userSpaceOnUse"
       x1="969.15265"
       y1="388.27069"
       x2="551.69403"
       y2="288.31134" />
    <linearGradient
       inkscape:collect="always"
       xlink:href="#linearGradient10073"
       id="linearGradient13996"
       gradientUnits="userSpaceOnUse"
       x1="535.98859"
       y1="712.17462"
       x2="734.64783"
       y2="630.29602" />
    <linearGradient
       inkscape:collect="always"
       xlink:href="#linearGradient10968"
       id="linearGradient13998"
       gradientUnits="userSpaceOnUse"
       x1="566.03632"
       y1="614.30438"
       x2="597.65863"
       y2="724.77136" />
  </defs>
  <sodipodi:namedview
     id="base"
     pagecolor="#ffffff"
     bordercolor="#666666"
     borderopacity="1.0"
     inkscape:pageopacity="0.0"
     inkscape:pageshadow="2"
     inkscape:zoom="0.44907399"
     inkscape:cx="516.04321"
     inkscape:cy="310.22911"
     inkscape:document-units="px"
     inkscape:current-layer="layer1"
     showgrid="false"
     width="1052.3622px"
     height="744.09448px"
     showguides="true"
     inkscape:guide-bbox="true"
     inkscape:window-width="1016"
     inkscape:window-height="682"
     inkscape:window-x="0"
     inkscape:window-y="0" />
  <metadata
     id="metadata6">
    <rdf:RDF>
      <cc:Work
         rdf:about="">
        <dc:format>image/svg+xml</dc:format>
        <dc:type
           rdf:resource="http://purl.org/dc/dcmitype/StillImage" />
        <dc:title>ryba</dc:title>
        <dc:creator>
          <cc:Agent>
            <dc:title>Vaclavek David</dc:title>
          </cc:Agent>
        </dc:creator>
        <dc:publisher>
          <cc:Agent>
            <dc:title>ZS a MS Machovo nam.</dc:title>
          </cc:Agent>
        </dc:publisher>
        <dc:language>cz</dc:language>
        <dc:subject>
          <rdf:Bag>
            <rdf:li>ryba</rdf:li>
            <rdf:li>fish</rdf:li>
          </rdf:Bag>
        </dc:subject>
        <cc:license
           rdf:resource="http://web.resource.org/cc/PublicDomain" />
      </cc:Work>
      <cc:License
         rdf:about="http://web.resource.org/cc/PublicDomain">
        <cc:permits
           rdf:resource="http://web.resource.org/cc/Reproduction" />
        <cc:permits
           rdf:resource="http://web.resource.org/cc/Distribution" />
        <cc:permits
           rdf:resource="http://web.resource.org/cc/DerivativeWorks" />
      </cc:License>
    </rdf:RDF>
  </metadata>
  <g
     inkscape:label="Vrstva 1"
     inkscape:groupmode="layer"
     id="layer1"
     transform="translate(-66.9613,-25.78803)">
    <g
       id="g13699"
       transform="matrix(0.871496,0,0,0.857415,55.17951,-5.869445)"
       inkscape:export-filename="/media/KINGSTON/článek/ryba.png"
       inkscape:export-xdpi="90"
       inkscape:export-ydpi="90">
      <path
         sodipodi:nodetypes="ccccsccccsc"
         id="path10998"
         d="M 447.85945,606.57677 L 448.1407,607.13927 C 406.22209,696.51839 505.53831,736.00937 512.29695,738.57677 L 512.42195,738.82677 C 512.45239,738.76262 512.4854,738.70337 512.5157,738.63927 C 512.62524,738.68024 512.9532,738.82677 512.9532,738.82677 L 523.69407,694.96308 C 565.61459,605.58289 455.27438,609.39419 448.5157,606.82677 L 448.3907,606.57677 C 448.36018,606.64108 448.32732,606.70001 448.29695,606.76427 C 448.18741,606.7233 447.85945,606.57677 447.85945,606.57677 z "
         style="fill:url(#linearGradient13681);fill-opacity:1;fill-rule:evenodd;stroke:black;stroke-width:5;stroke-linecap:round;stroke-linejoin:round;stroke-miterlimit:4;stroke-opacity:1" />
      <path
         sodipodi:nodetypes="ccssscsscss"
         id="rect2007"
         d="M 879.08726,147.01652 C 911.61215,117.81792 977.57556,85.888453 1015.7415,82.767805 C 949.43779,135.84664 949.25675,167.99472 942.43377,212.71662 C 935.6108,257.43852 910.64891,317.13108 913.20533,404.05551 C 915.5394,483.41965 945.34939,557.94331 951.75979,604.41411 C 958.17019,650.88491 954.34397,690.22987 1014.8376,740.07856 C 977.58804,737.77448 895.4572,694.84792 881.32936,681.28272 C 826.16129,628.3117 845.9864,553.03666 856.22487,509.37409 C 873.92637,433.88507 831.13476,464.48143 817.22356,411.12392 C 831.13476,357.76642 873.09183,384.86969 856.50681,310.59826 C 847.93728,272.22197 824.2734,196.22461 879.08726,147.01652 z "
         style="fill:url(#linearGradient9153);fill-opacity:1;fill-rule:nonzero;stroke:black;stroke-width:5;stroke-linecap:round;stroke-linejoin:round;stroke-miterlimit:4;stroke-dasharray:none;stroke-dashoffset:0;stroke-opacity:1" />
      <path
         style="fill:url(#radialGradient8260);fill-opacity:1;fill-rule:nonzero;stroke:black;stroke-width:5;stroke-linecap:round;stroke-linejoin:round;stroke-miterlimit:4;stroke-dasharray:none;stroke-dashoffset:0;stroke-opacity:1"
         d="M 879.42127,146.35256 C 911.94616,117.15396 977.90957,85.2245 1016.0755,82.10385 C 949.7718,135.18268 949.59076,167.33076 942.76778,212.05266 C 935.94481,256.77456 910.98292,316.46712 913.53934,403.39155 C 915.87341,482.75569 945.6834,557.27935 952.0938,603.75015 C 958.5042,650.22095 954.67798,689.56591 1015.1716,739.4146 C 977.92205,737.11052 895.79121,694.18396 881.66337,680.61876 C 826.4953,627.64774 846.32041,552.3727 856.55888,508.71013 C 874.26038,433.22111 831.46877,463.81747 817.55757,410.45996 C 831.46877,357.10246 873.42584,384.20573 856.84082,309.9343 C 848.27129,271.55801 824.60741,195.56065 879.42127,146.35256 z "
         id="path7373"
         sodipodi:nodetypes="ccssscsscss" />
      <path
         sodipodi:nodetypes="csccsssc"
         id="path23581"
         d="M 476.53679,164.03319 C 508.45693,149.24904 533.95455,138.80335 561.4295,131.22557 C 588.90446,123.64778 624.91866,115.35108 684.10693,107.55526 C 623.9933,154.7601 626.70612,175.06686 646.31531,212.47559 C 635.30696,207.08232 607.49347,192.4669 579.0106,185.58094 C 544.24807,177.17681 527.19257,178.31848 499.66436,178.1241 C 472.13614,177.92972 452.9393,183.43219 444.22324,186.2904 C 436.20295,188.92046 440.30485,182.08359 476.53679,164.03319 z "
         style="fill:url(#linearGradient1988);fill-opacity:1;fill-rule:nonzero;stroke:black;stroke-width:5;stroke-linecap:round;stroke-linejoin:round;stroke-miterlimit:4;stroke-dasharray:none;stroke-dashoffset:0;stroke-opacity:1" />
      <path
         sodipodi:type="arc"
         style="fill:white;fill-opacity:1;fill-rule:nonzero;stroke:black;stroke-width:5.66890526;stroke-linecap:round;stroke-linejoin:round;stroke-miterlimit:4;stroke-dasharray:none;stroke-dashoffset:0;stroke-opacity:1"
         id="path2777"
         sodipodi:cx="-16.841644"
         sodipodi:cy="360.5643"
         sodipodi:rx="61.242344"
         sodipodi:ry="62.007874"
         d="M 44.4007 360.5643 A 61.242344 62.007874 0 1 1  -78.083988,360.5643 A 61.242344 62.007874 0 1 1  44.4007 360.5643 z"
         transform="matrix(0.8875,0,0,0.876543,298.5693,-37.837)" />
      <path
         sodipodi:nodetypes="csscccssc"
         id="path1883"
         d="M 588.06588,400.18078 C 588.06588,457.6506 565.86616,509.70659 529.98986,547.39513 C 494.11354,585.08366 432.35591,607.96345 406.69583,608.28051 C 390.36334,608.48231 250.50472,574.71095 214.6284,537.02243 C 173.50159,501.85703 157.01509,475.20937 151.98793,438.42185 C 150.02288,415.41387 170.23458,330.21004 212.03523,293.49134 C 247.91154,255.80281 357.52045,191.95679 412.22688,191.95679 C 466.93332,191.95679 494.11354,215.27788 529.98986,252.96641 C 565.86616,290.65495 588.06588,342.71095 588.06588,400.18078 z "
         style="fill:url(#linearGradient1984);fill-opacity:1;fill-rule:nonzero;stroke:black;stroke-width:5;stroke-linecap:round;stroke-linejoin:round;stroke-miterlimit:4;stroke-dasharray:none;stroke-dashoffset:0;stroke-opacity:1" />
      <path
         style="fill:url(#linearGradient1981);fill-opacity:1;fill-rule:nonzero;stroke:black;stroke-width:5;stroke-linecap:round;stroke-linejoin:round;stroke-miterlimit:4;stroke-dasharray:none;stroke-dashoffset:0;stroke-opacity:1"
         d="M 588.39637,398.34602 C 588.39637,455.81584 566.19665,507.87183 530.32035,545.56037 C 494.44403,583.2489 432.6864,606.12869 407.02632,606.44575 C 390.69383,606.64755 244.83521,570.87619 208.95889,533.18767 C 167.83208,498.02227 157.34558,473.37461 152.31841,436.58709 C 150.35337,413.57911 170.56507,328.37528 212.36572,291.65658 C 248.24203,253.96805 357.85094,190.12203 412.55737,190.12203 C 467.26381,190.12203 494.44403,213.44312 530.32035,251.13165 C 566.19665,288.82019 588.39637,340.87619 588.39637,398.34602 z "
         id="path10986"
         sodipodi:nodetypes="csscccssc" />
      <path
         sodipodi:nodetypes="ccscsscccsc"
         id="path1874"
         d="M 502.21816,175.84742 C 467.95074,175.84742 435.22442,181.53159 405.21939,191.79197 C 501.75624,224.8033 570.0298,305.55712 570.0298,399.91695 C 570.02981,494.27678 501.75624,575.06193 405.21939,608.07325 C 435.22442,618.33364 467.95074,624.01781 502.21816,624.01781 C 574.47708,624.01781 639.92941,598.91464 687.3169,558.35047 C 711.0107,538.06836 751.24009,488.59772 803.91852,464.0925 C 856.59695,439.58727 875.72491,440.04748 875.72491,409.12542 C 875.72491,378.20337 851.53492,377.00625 798.85649,347.89973 C 746.17806,318.79322 711.0107,261.77728 687.3169,241.49911 C 639.92941,200.94276 574.47708,175.84742 502.21816,175.84742 z "
         style="fill:url(#linearGradient1978);fill-opacity:1;fill-rule:nonzero;stroke:black;stroke-width:5.00598478;stroke-linecap:round;stroke-linejoin:round;stroke-miterlimit:4;stroke-dashoffset:0;stroke-opacity:1" />
      <g
         id="g9179">
        <path
           sodipodi:type="arc"
           style="fill:white;fill-opacity:1;fill-rule:nonzero;stroke:black;stroke-width:5.66890526;stroke-linecap:round;stroke-linejoin:round;stroke-miterlimit:4;stroke-dasharray:none;stroke-dashoffset:0;stroke-opacity:1"
           id="path1886"
           sodipodi:cx="-16.841644"
           sodipodi:cy="360.5643"
           sodipodi:rx="61.242344"
           sodipodi:ry="62.007874"
           d="M 44.4007 360.5643 A 61.242344 62.007874 0 1 1  -78.083988,360.5643 A 61.242344 62.007874 0 1 1  44.4007 360.5643 z"
           transform="matrix(0.8875,0,0,0.876543,320.5693,-45.83706)" />
        <path
           sodipodi:type="arc"
           style="fill:black;fill-opacity:1;fill-rule:nonzero;stroke:black;stroke-width:5;stroke-linecap:round;stroke-linejoin:round;stroke-miterlimit:4;stroke-dasharray:none;stroke-dashoffset:0;stroke-opacity:1"
           id="path2775"
           sodipodi:cx="-94.160103"
           sodipodi:cy="254.15573"
           sodipodi:rx="20.669291"
           sodipodi:ry="18.372704"
           d="M -73.490812 254.15573 A 20.669291 18.372704 0 1 1  -114.82939,254.15573 A 20.669291 18.372704 0 1 1  -73.490812 254.15573 z"
           transform="matrix(0.798673,0,0,0.85684,394.885,72.04939)" />
        <path
           style="fill:none;fill-rule:evenodd;stroke:black;stroke-width:5;stroke-linecap:round;stroke-linejoin:round;marker-start:none;stroke-miterlimit:4;stroke-dasharray:none;stroke-opacity:1"
           d="M 375.59109,325.13892 C 476.04055,528.37615 155.84276,448.03734 155.84276,448.03734"
           id="path6337"
           sodipodi:nodetypes="cc" />
        <path
           style="fill:none;fill-rule:evenodd;stroke:black;stroke-width:5;stroke-linecap:round;stroke-linejoin:round;stroke-miterlimit:4;stroke-dasharray:none;stroke-opacity:1"
           d="M 361.2483,332.94677 C 387.5099,319.24667 387.5099,319.24667 387.5099,319.24667"
           id="path9184" />
      </g>
      <path
         style="fill:url(#linearGradient1968);fill-opacity:1;fill-rule:nonzero;stroke:black;stroke-width:5.00598478;stroke-linecap:round;stroke-linejoin:round;stroke-miterlimit:4;stroke-dashoffset:0;stroke-opacity:1"
         d="M 502.21816,175.84742 C 467.95074,175.84742 435.22442,181.53159 405.21939,191.79197 C 501.75624,224.8033 570.0298,305.55712 570.0298,399.91695 C 570.02981,494.27678 501.75624,575.06193 405.21939,608.07325 C 435.22442,618.33364 467.95074,624.01781 502.21816,624.01781 C 574.47708,624.01781 639.92941,598.91464 687.3169,558.35047 C 711.0107,538.06836 751.24009,488.59772 803.91852,464.0925 C 856.59695,439.58727 875.72491,440.04748 875.72491,409.12542 C 875.72491,378.20337 851.53492,377.00625 798.85649,347.89973 C 746.17806,318.79322 711.0107,261.77728 687.3169,241.49911 C 639.92941,200.94276 574.47708,175.84742 502.21816,175.84742 z "
         id="path17237"
         sodipodi:nodetypes="ccscsscccsc" />
      <g
         transform="translate(-36.16137,-19.2546)"
         id="g22661">
        <path
           sodipodi:type="arc"
           style="fill:#e6e6e6;fill-opacity:1;fill-rule:nonzero;stroke:black;stroke-width:0;stroke-linecap:round;stroke-linejoin:round;stroke-miterlimit:4;stroke-dasharray:none;stroke-dashoffset:0;stroke-opacity:1"
           id="path19957"
           sodipodi:cx="-467.69266"
           sodipodi:cy="508.08292"
           sodipodi:rx="43.304878"
           sodipodi:ry="41.139633"
           d="M -424.38778 508.08292 A 43.304878 41.139633 0 1 1  -510.99754,508.08292 A 43.304878 41.139633 0 1 1  -424.38778 508.08292 z"
           transform="matrix(0.952609,0,0,0.897485,625.7227,-362.898)" />
        <path
           transform="matrix(0.54131,0,0,0.51717,378.1473,-94.96544)"
           d="M -424.38778 508.08292 A 43.304878 41.139633 0 1 1  -510.99754,508.08292 A 43.304878 41.139633 0 1 1  -424.38778 508.08292 z"
           sodipodi:ry="41.139633"
           sodipodi:rx="43.304878"
           sodipodi:cy="508.08292"
           sodipodi:cx="-467.69266"
           id="path19959"
           style="fill:#e6e6e6;fill-opacity:1;fill-rule:nonzero;stroke:black;stroke-width:0;stroke-linecap:round;stroke-linejoin:round;stroke-miterlimit:4;stroke-dasharray:none;stroke-dashoffset:0;stroke-opacity:1"
           sodipodi:type="arc" />
        <path
           transform="matrix(0.661576,0,0,0.67008,474.964,40.43027)"
           d="M -424.38778 508.08292 A 43.304878 41.139633 0 1 1  -510.99754,508.08292 A 43.304878 41.139633 0 1 1  -424.38778 508.08292 z"
           sodipodi:ry="41.139633"
           sodipodi:rx="43.304878"
           sodipodi:cy="508.08292"
           sodipodi:cx="-467.69266"
           id="path19961"
           style="fill:#e6e6e6;fill-opacity:1;fill-rule:nonzero;stroke:black;stroke-width:0;stroke-linecap:round;stroke-linejoin:round;stroke-miterlimit:4;stroke-dasharray:none;stroke-dashoffset:0;stroke-opacity:1"
           sodipodi:type="arc" />
        <path
           sodipodi:type="arc"
           style="fill:#e6e6e6;fill-opacity:1;fill-rule:nonzero;stroke:black;stroke-width:0;stroke-linecap:round;stroke-linejoin:round;stroke-miterlimit:4;stroke-dasharray:none;stroke-dashoffset:0;stroke-opacity:1"
           id="path19963"
           sodipodi:cx="-467.69266"
           sodipodi:cy="508.08292"
           sodipodi:rx="43.304878"
           sodipodi:ry="41.139633"
           d="M -424.38778 508.08292 A 43.304878 41.139633 0 1 1  -510.99754,508.08292 A 43.304878 41.139633 0 1 1  -424.38778 508.08292 z"
           transform="matrix(0.782725,0,0,0.77129,511.0548,-99.93288)" />
        <path
           transform="matrix(0.493029,0,0,0.466347,310.6089,-12.11918)"
           d="M -424.38778 508.08292 A 43.304878 41.139633 0 1 1  -510.99754,508.08292 A 43.304878 41.139633 0 1 1  -424.38778 508.08292 z"
           sodipodi:ry="41.139633"
           sodipodi:rx="43.304878"
           sodipodi:cy="508.08292"
           sodipodi:cx="-467.69266"
           id="path19965"
           style="fill:#e6e6e6;fill-opacity:1;fill-rule:nonzero;stroke:black;stroke-width:0;stroke-linecap:round;stroke-linejoin:round;stroke-miterlimit:4;stroke-dasharray:none;stroke-dashoffset:0;stroke-opacity:1"
           sodipodi:type="arc" />
        <path
           sodipodi:type="arc"
           style="fill:#e6e6e6;fill-opacity:1;fill-rule:nonzero;stroke:black;stroke-width:0;stroke-linecap:round;stroke-linejoin:round;stroke-miterlimit:4;stroke-dasharray:none;stroke-dashoffset:0;stroke-opacity:1"
           id="path19967"
           sodipodi:cx="-467.69266"
           sodipodi:cy="508.08292"
           sodipodi:rx="43.304878"
           sodipodi:ry="41.139633"
           d="M -424.38778 508.08292 A 43.304878 41.139633 0 1 1  -510.99754,508.08292 A 43.304878 41.139633 0 1 1  -424.38778 508.08292 z"
           transform="matrix(0.613734,0,0,0.593405,428.7714,-114.9472)" />
        <path
           transform="matrix(0.521025,0,0,0.49901,492.0061,-142.0672)"
           d="M -424.38778 508.08292 A 43.304878 41.139633 0 1 1  -510.99754,508.08292 A 43.304878 41.139633 0 1 1  -424.38778 508.08292 z"
           sodipodi:ry="41.139633"
           sodipodi:rx="43.304878"
           sodipodi:cy="508.08292"
           sodipodi:cx="-467.69266"
           id="path19969"
           style="fill:#e6e6e6;fill-opacity:1;fill-rule:nonzero;stroke:black;stroke-width:0;stroke-linecap:round;stroke-linejoin:round;stroke-miterlimit:4;stroke-dasharray:none;stroke-dashoffset:0;stroke-opacity:1"
           sodipodi:type="arc" />
        <g
           id="g19946"
           transform="translate(2,-2)">
          <path
             sodipodi:type="arc"
             style="fill:url(#linearGradient29067);fill-opacity:1;fill-rule:nonzero;stroke:black;stroke-width:2.16301274;stroke-linecap:round;stroke-linejoin:round;stroke-miterlimit:4;stroke-dasharray:none;stroke-dashoffset:0;stroke-opacity:1"
             id="path15447"
             sodipodi:cx="-467.69266"
             sodipodi:cy="508.08292"
             sodipodi:rx="43.304878"
             sodipodi:ry="41.139633"
             d="M -424.38778 508.08292 A 43.304878 41.139633 0 1 1  -510.99754,508.08292 A 43.304878 41.139633 0 1 1  -424.38778 508.08292 z"
             transform="matrix(0.952609,0,0,0.897485,615.7227,-350.898)" />
          <path
             transform="matrix(0.54131,0,0,0.51717,368.1473,-82.96544)"
             d="M -424.38778 508.08292 A 43.304878 41.139633 0 1 1  -510.99754,508.08292 A 43.304878 41.139633 0 1 1  -424.38778 508.08292 z"
             sodipodi:ry="41.139633"
             sodipodi:rx="43.304878"
             sodipodi:cy="508.08292"
             sodipodi:cx="-467.69266"
             id="path15445"
             style="fill:url(#linearGradient29069);fill-opacity:1;fill-rule:nonzero;stroke:black;stroke-width:3.7799871;stroke-linecap:round;stroke-linejoin:round;stroke-miterlimit:4;stroke-dasharray:none;stroke-dashoffset:0;stroke-opacity:1"
             sodipodi:type="arc" />
          <path
             transform="matrix(0.661576,0,0,0.67008,464.964,52.43027)"
             d="M -424.38778 508.08292 A 43.304878 41.139633 0 1 1  -510.99754,508.08292 A 43.304878 41.139633 0 1 1  -424.38778 508.08292 z"
             sodipodi:ry="41.139633"
             sodipodi:rx="43.304878"
             sodipodi:cy="508.08292"
             sodipodi:cx="-467.69266"
             id="path14552"
             style="fill:url(#linearGradient29071);fill-opacity:1;fill-rule:nonzero;stroke:black;stroke-width:3.00383997;stroke-linecap:round;stroke-linejoin:round;stroke-miterlimit:4;stroke-dasharray:none;stroke-dashoffset:0;stroke-opacity:1"
             sodipodi:type="arc" />
          <path
             sodipodi:type="arc"
             style="fill:url(#linearGradient29073);fill-opacity:1;fill-rule:nonzero;stroke:black;stroke-width:2.57404733;stroke-linecap:round;stroke-linejoin:round;stroke-miterlimit:4;stroke-dasharray:none;stroke-dashoffset:0;stroke-opacity:1"
             id="path15439"
             sodipodi:cx="-467.69266"
             sodipodi:cy="508.08292"
             sodipodi:rx="43.304878"
             sodipodi:ry="41.139633"
             d="M -424.38778 508.08292 A 43.304878 41.139633 0 1 1  -510.99754,508.08292 A 43.304878 41.139633 0 1 1  -424.38778 508.08292 z"
             transform="matrix(0.782725,0,0,0.77129,501.0548,-87.93288)" />
          <path
             transform="matrix(0.493029,0,0,0.466347,300.6089,-0.119183)"
             d="M -424.38778 508.08292 A 43.304878 41.139633 0 1 1  -510.99754,508.08292 A 43.304878 41.139633 0 1 1  -424.38778 508.08292 z"
             sodipodi:ry="41.139633"
             sodipodi:rx="43.304878"
             sodipodi:cy="508.08292"
             sodipodi:cx="-467.69266"
             id="path15441"
             style="fill:url(#linearGradient29075);fill-opacity:1;fill-rule:nonzero;stroke:black;stroke-width:4.17098999;stroke-linecap:round;stroke-linejoin:round;stroke-miterlimit:4;stroke-dasharray:none;stroke-dashoffset:0;stroke-opacity:1"
             sodipodi:type="arc" />
          <path
             sodipodi:type="arc"
             style="fill:url(#linearGradient29077);fill-opacity:1;fill-rule:nonzero;stroke:black;stroke-width:3.31409001;stroke-linecap:round;stroke-linejoin:round;stroke-miterlimit:4;stroke-dasharray:none;stroke-dashoffset:0;stroke-opacity:1"
             id="path15443"
             sodipodi:cx="-467.69266"
             sodipodi:cy="508.08292"
             sodipodi:rx="43.304878"
             sodipodi:ry="41.139633"
             d="M -424.38778 508.08292 A 43.304878 41.139633 0 1 1  -510.99754,508.08292 A 43.304878 41.139633 0 1 1  -424.38778 508.08292 z"
             transform="matrix(0.613734,0,0,0.593405,418.7714,-102.9472)" />
          <path
             transform="matrix(0.521025,0,0,0.49901,482.0061,-130.0672)"
             d="M -424.38778 508.08292 A 43.304878 41.139633 0 1 1  -510.99754,508.08292 A 43.304878 41.139633 0 1 1  -424.38778 508.08292 z"
             sodipodi:ry="41.139633"
             sodipodi:rx="43.304878"
             sodipodi:cy="508.08292"
             sodipodi:cx="-467.69266"
             id="path18138"
             style="fill:url(#linearGradient29079);fill-opacity:1;fill-rule:nonzero;stroke:black;stroke-width:3.92234778;stroke-linecap:round;stroke-linejoin:round;stroke-miterlimit:4;stroke-dasharray:none;stroke-dashoffset:0;stroke-opacity:1"
             sodipodi:type="arc" />
        </g>
      </g>
      <path
         sodipodi:nodetypes="cc"
         id="path27156"
         d="M 538.94005,138.45189 C 494.1728,156.88002 509.36288,175.23381 509.36288,175.23381"
         style="fill:none;fill-rule:evenodd;stroke:black;stroke-width:3.5;stroke-linecap:round;stroke-linejoin:round;stroke-miterlimit:4;stroke-dasharray:none;stroke-opacity:1" />
      <path
         style="fill:none;fill-rule:evenodd;stroke:black;stroke-width:3.5;stroke-linecap:round;stroke-linejoin:round;stroke-miterlimit:4;stroke-dasharray:none;stroke-opacity:1"
         d="M 614.43448,118.87324 C 532.14645,144.03521 551.69664,178.35605 551.69664,178.35605"
         id="path28946"
         sodipodi:nodetypes="cc" />
      <path
         sodipodi:nodetypes="cc"
         id="path28948"
         d="M 681.42601,108.53899 C 575.13678,138.28822 592.94804,188.96781 592.94804,188.96781"
         style="fill:none;fill-rule:evenodd;stroke:black;stroke-width:3.5;stroke-linecap:round;stroke-linejoin:round;stroke-miterlimit:4;stroke-dasharray:none;stroke-opacity:1" />
      <path
         sodipodi:nodetypes="ccscsscccsc"
         id="path5587"
         d="M 502.21816,175.84742 C 467.95074,175.84742 435.22442,181.53159 405.21939,191.79197 C 501.75624,224.8033 570.0298,305.55712 570.0298,399.91695 C 570.02981,494.27678 501.75624,575.06193 405.21939,608.07325 C 435.22442,618.33364 467.95074,624.01781 502.21816,624.01781 C 574.47708,624.01781 639.92941,598.91464 687.3169,558.35047 C 711.0107,538.06836 751.24009,488.59772 803.91852,464.0925 C 856.59695,439.58727 875.72491,440.04748 875.72491,409.12542 C 875.72491,378.20337 851.53492,377.00625 798.85649,347.89973 C 746.17806,318.79322 711.0107,261.77728 687.3169,241.49911 C 639.92941,200.94276 574.47708,175.84742 502.21816,175.84742 z "
         style="fill:url(#linearGradient7367);fill-opacity:1;fill-rule:nonzero;stroke:black;stroke-width:5.00598478;stroke-linecap:round;stroke-linejoin:round;stroke-miterlimit:4;stroke-dashoffset:0;stroke-opacity:1" />
      <g
         id="g10976">
        <path
           style="fill:url(#linearGradient10079);fill-opacity:1;fill-rule:nonzero;stroke:black;stroke-width:5;stroke-linecap:round;stroke-linejoin:round;stroke-miterlimit:4;stroke-dashoffset:0;stroke-opacity:1"
           d="M 634.71657,775.10247 C 601.13165,837.21528 525.33498,765.69718 506.84029,734.44664 C 485.84293,701.16884 471.92508,657.25643 524.84029,573.81555 C 532.23219,564.12259 520.28661,546.17175 558.44442,549.50373 C 583.18019,551.66368 562.11138,583.98792 578.39476,601.47747 C 596.40809,618.21257 616.11953,646.04742 628.51062,670.49436 C 642.81217,698.71055 651.6425,742.65616 634.71657,775.10247 z "
           id="path9185"
           sodipodi:nodetypes="cccscsc" />
        <path
           sodipodi:nodetypes="cccscsc"
           id="path10081"
           d="M 634.71657,775.10247 C 601.13165,837.21528 525.33498,765.69718 506.84029,734.44664 C 485.84293,701.16884 471.92508,657.25643 524.84029,573.81555 C 532.23219,564.12259 520.28661,546.17175 558.44442,549.50373 C 583.18019,551.66368 562.11138,583.98792 578.39476,601.47747 C 596.40809,618.21257 616.11953,646.04742 628.51062,670.49436 C 642.81217,698.71055 651.6425,742.65616 634.71657,775.10247 z "
           style="fill:url(#linearGradient10974);fill-opacity:1;fill-rule:nonzero;stroke:black;stroke-width:5;stroke-linecap:round;stroke-linejoin:round;stroke-miterlimit:4;stroke-dashoffset:0;stroke-opacity:1" />
      </g>
    </g>
  </g>
</svg>
